<mxfile host="65bd71144e">
    <diagram id="c0TNne1F0ptKXdole3Q1" name="Page-1">
        <mxGraphModel dx="1606" dy="1214" grid="1" gridSize="10" guides="1" tooltips="1" connect="1" arrows="1" fold="1" page="1" pageScale="1" pageWidth="850" pageHeight="1100" background="none" math="0" shadow="0">
            <root>
                <mxCell id="0"/>
                <mxCell id="1" parent="0"/>
                <mxCell id="16" style="edgeStyle=none;html=1;exitX=1;exitY=0.5;exitDx=0;exitDy=0;entryX=0;entryY=0.5;entryDx=0;entryDy=0;" parent="1" source="3" target="11" edge="1">
                    <mxGeometry relative="1" as="geometry"/>
                </mxCell>
                <mxCell id="3" value="Client Device&amp;nbsp;&lt;br style=&quot;font-size: 15px;&quot;&gt;(Web Browser)" style="swimlane;whiteSpace=wrap;html=1;perimeterSpacing=5;fillColor=#fff2cc;strokeColor=#d6b656;gradientColor=#ffd966;fontColor=#000000;startSize=38;fontSize=15;" parent="1" vertex="1">
                    <mxGeometry x="80" y="281" width="192" height="188" as="geometry"/>
                </mxCell>
                <mxCell id="18" value="Bigoanalysis.com" style="text;html=1;align=center;verticalAlign=middle;resizable=0;points=[];autosize=1;strokeColor=none;fillColor=none;fontSize=16;" parent="3" vertex="1">
                    <mxGeometry x="19" y="96" width="143" height="31" as="geometry"/>
                </mxCell>
                <mxCell id="4" value="AWS Cloud" style="swimlane;whiteSpace=wrap;html=1;fillColor=#1ba1e2;fontColor=#ffffff;strokeColor=#006EAF;fontSize=16;" parent="1" vertex="1">
                    <mxGeometry x="368" y="68" width="1085" height="548" as="geometry"/>
                </mxCell>
                <mxCell id="10" value="EC2" style="swimlane;whiteSpace=wrap;html=1;fillColor=#e1d5e7;strokeColor=#9673a6;fontColor=#000000;fontSize=16;" parent="4" vertex="1">
                    <mxGeometry x="40" y="47" width="1002" height="467" as="geometry"/>
                </mxCell>
                <mxCell id="17" style="edgeStyle=none;html=1;exitX=1;exitY=0.5;exitDx=0;exitDy=0;entryX=0;entryY=0.5;entryDx=0;entryDy=0;" parent="10" source="11" target="13" edge="1">
                    <mxGeometry relative="1" as="geometry"/>
                </mxCell>
                <mxCell id="11" value="Nginx" style="swimlane;whiteSpace=wrap;html=1;fillColor=#f5f5f5;fontColor=#333333;strokeColor=#666666;fontSize=16;" parent="10" vertex="1">
                    <mxGeometry x="70" y="160" width="200" height="200" as="geometry"/>
                </mxCell>
                <mxCell id="12" value="Web Server" style="text;html=1;align=center;verticalAlign=middle;resizable=0;points=[];autosize=1;strokeColor=none;fillColor=none;fontSize=16;" parent="11" vertex="1">
                    <mxGeometry x="50" y="86" width="102" height="31" as="geometry"/>
                </mxCell>
                <mxCell id="13" value="Gunicorn" style="swimlane;whiteSpace=wrap;html=1;fillColor=#f5f5f5;fontColor=#333333;strokeColor=#666666;fontSize=16;" parent="10" vertex="1">
                    <mxGeometry x="325" y="90" width="375" height="340" as="geometry"/>
                </mxCell>
                <mxCell id="15" value="Django &lt;br&gt;(Backend Framework)" style="swimlane;whiteSpace=wrap;html=1;startSize=36;" parent="13" vertex="1">
                    <mxGeometry x="100" y="60" width="200" height="200" as="geometry"/>
                </mxCell>
                <mxCell id="19" value="&lt;font style=&quot;font-size: 16px;&quot;&gt;/home&lt;br&gt;/teacher&lt;br&gt;/student&lt;br&gt;/about&lt;/font&gt;" style="text;html=1;align=center;verticalAlign=middle;resizable=0;points=[];autosize=1;strokeColor=none;fillColor=none;" parent="15" vertex="1">
                    <mxGeometry x="47.5" y="55" width="80" height="90" as="geometry"/>
                </mxCell>
                <mxCell id="22" style="edgeStyle=none;html=1;exitX=1;exitY=0.5;exitDx=0;exitDy=0;entryX=0;entryY=0.5;entryDx=0;entryDy=0;fontSize=16;entryPerimeter=0;" parent="10" source="15" target="24" edge="1">
                    <mxGeometry relative="1" as="geometry">
                        <mxPoint x="770" y="250" as="targetPoint"/>
                    </mxGeometry>
                </mxCell>
                <mxCell id="24" value="MySQL&amp;nbsp;&lt;br&gt;Database" style="shape=cylinder3;whiteSpace=wrap;html=1;boundedLbl=1;backgroundOutline=1;size=15;fontSize=16;labelBackgroundColor=none;fillColor=#dae8fc;gradientColor=#7ea6e0;strokeColor=#6c8ebf;fontColor=#000000;" parent="10" vertex="1">
                    <mxGeometry x="785" y="184.5" width="102" height="131" as="geometry"/>
                </mxCell>
            </root>
        </mxGraphModel>
    </diagram>
</mxfile>